<?xml version="1.0" standalone="no"?>
<!DOCTYPE svg PUBLIC "-//W3C//DTD SVG 20010904//EN"
 "http://www.w3.org/TR/2001/REC-SVG-20010904/DTD/svg10.dtd">
<svg version="1.0" xmlns="http://www.w3.org/2000/svg"
 width="683.000000pt" height="108.000000pt" viewBox="0 0 683.000000 108.000000"
 preserveAspectRatio="xMidYMid meet">

<g transform="translate(0.000000,108.000000) scale(0.100000,-0.100000)"
fill="#000000" stroke="none">
<path d="M4900 985 l-45 -11 -3 -67 -3 -67 -39 0 c-40 0 -40 0 -40 -40 0 -40
0 -40 39 -40 l39 0 4 -187 c3 -208 11 -239 68 -268 29 -15 124 -21 154 -9 17
7 21 50 7 72 -5 8 -17 11 -32 7 -14 -3 -37 -2 -51 4 -38 14 -48 61 -48 234 l0
147 70 0 70 0 0 40 0 39 -67 3 -68 3 -5 76 -5 75 -45 -11z"/>
<path d="M1742 839 c-18 -6 -51 -28 -72 -51 l-40 -40 0 46 0 46 -40 0 -40 0 0
-270 0 -270 45 0 45 0 0 173 c0 146 3 178 19 213 45 99 156 115 207 31 17 -28
19 -56 22 -224 l4 -193 44 0 44 0 0 185 c0 201 5 224 56 264 32 25 99 28 130
6 46 -32 54 -70 54 -269 l0 -186 45 0 45 0 0 188 c0 248 -17 303 -104 343 -76
35 -148 19 -212 -48 -24 -25 -44 -39 -44 -31 0 24 -60 77 -98 88 -44 12 -65
12 -110 -1z"/>
<path d="M2635 841 c-120 -31 -188 -131 -189 -276 0 -201 128 -301 340 -266
89 15 96 20 88 60 -5 25 -10 30 -23 25 -9 -4 -45 -12 -81 -17 -75 -11 -131 0
-175 35 -30 23 -64 90 -65 126 l0 22 190 0 190 0 0 48 c0 60 -20 130 -50 172
-41 57 -148 91 -225 71z m123 -81 c35 -21 62 -72 62 -115 l0 -25 -145 0 -145
0 6 28 c26 110 135 165 222 112z"/>
<path d="M3232 829 c-24 -12 -49 -30 -55 -40 -18 -29 -27 -23 -27 16 l0 35
-51 0 -52 0 7 -77 c3 -42 6 -213 6 -380 l0 -303 50 0 50 0 0 135 c0 74 4 135
9 135 5 0 15 -7 22 -17 22 -26 74 -43 134 -43 148 0 245 112 245 285 0 129
-51 221 -142 259 -55 23 -144 20 -196 -5z m143 -79 c63 -30 90 -85 90 -180 -1
-60 -5 -83 -24 -116 -61 -109 -208 -109 -260 -1 -44 90 -20 238 45 284 56 39
90 42 149 13z"/>
<path d="M3843 834 c-127 -45 -195 -215 -148 -370 31 -105 126 -174 241 -174
126 0 224 64 259 170 24 71 17 198 -13 256 -27 52 -90 107 -141 122 -52 16
-147 14 -198 -4z m193 -95 c97 -90 89 -276 -15 -346 -72 -48 -163 -20 -210 66
-46 84 -27 216 41 277 33 30 46 34 106 30 39 -2 59 -9 78 -27z"/>
<path d="M4423 829 c-56 -28 -83 -72 -83 -137 0 -67 32 -105 127 -149 109 -50
139 -107 81 -155 -26 -23 -105 -24 -155 -3 -47 20 -50 19 -57 -9 -3 -13 -8
-31 -12 -39 -9 -23 66 -47 149 -47 122 1 194 51 204 144 9 81 -34 138 -137
181 -75 31 -100 53 -100 86 0 44 31 69 85 69 26 0 59 -7 76 -15 30 -16 30 -16
44 19 20 47 20 45 -20 62 -52 21 -152 18 -202 -7z"/>
</g>
</svg>
